<?xml version="1.0" encoding="iso-8859-1"?>
<!-- Generator: Adobe Illustrator 19.0.0, SVG Export Plug-In . SVG Version: 6.00 Build 0)  -->
<svg version="1.1" id="Layer_1" xmlns="http://www.w3.org/2000/svg" xmlns:xlink="http://www.w3.org/1999/xlink" x="0px" y="0px"
	 viewBox="0 0 512 512" style="enable-background:new 0 0 512 512;" xml:space="preserve">
<path style="fill:#AFB6BB;" d="M256,216.615c21.718,0,39.385,17.667,39.385,39.385S277.718,295.385,256,295.385
	S216.615,277.718,216.615,256S234.282,216.615,256,216.615z"/>
<path style="fill:#E7ECED;" d="M256,160.352c52.775,0,95.648,42.873,95.648,95.648S308.775,351.648,256,351.648
	S160.352,308.775,160.352,256S203.225,160.352,256,160.352z M295.385,256c0-21.718-17.667-39.385-39.385-39.385
	S216.615,234.282,216.615,256s17.667,39.385,39.385,39.385S295.385,277.718,295.385,256z"/>
<path style="fill:#7E8488;" d="M503.56,205.363v101.275h-51.65c-4.726,18.567-12.04,36.009-21.605,52.1l36.571,36.459l-71.68,71.68
	l-36.459-36.571c-16.091,9.565-33.533,16.879-52.1,21.605v51.65H205.363v-51.65c-18.567-4.726-36.009-12.04-52.1-21.605
	l-36.459,36.571l-71.68-71.68l36.571-36.459c-9.565-16.091-16.879-33.533-21.605-52.1H8.44V205.363h51.65
	c4.726-18.567,12.04-36.009,21.605-52.1l-36.571-36.459l71.68-71.68l36.459,36.571c16.091-9.565,33.533-16.879,52.1-21.605V8.44
	h101.275v51.65c18.567,4.726,36.009,12.04,52.1,21.605l36.459-36.571l71.68,71.68l-36.571,36.459
	c9.565,16.091,16.879,33.533,21.605,52.1L503.56,205.363L503.56,205.363z M351.648,256c0-52.775-42.873-95.648-95.648-95.648
	S160.352,203.225,160.352,256s42.873,95.648,95.648,95.648S351.648,308.775,351.648,256z"/>
<path style="fill:#656B6E;" d="M160.352,256c0-52.775,42.873-95.648,95.648-95.648V8.44h-50.637v51.65
	c-18.567,4.726-36.009,12.04-52.1,21.605l-36.459-36.571l-71.68,71.68l36.571,36.459c-9.565,16.091-16.879,33.533-21.605,52.1H8.44
	v101.275h51.65c4.726,18.567,12.039,36.009,21.605,52.1l-36.571,36.459l71.68,71.68l36.459-36.571
	c16.091,9.565,33.533,16.879,52.1,21.605v51.65H256V351.648C203.225,351.648,160.352,308.775,160.352,256z"/>
<path d="M315.077,512H196.923v-53.638c-14.67-4.242-28.833-10.115-42.246-17.521l-37.863,37.98L33.18,395.188l37.98-37.863
	c-7.405-13.413-13.279-27.577-17.521-42.246H0V196.923h53.638c4.242-14.67,10.115-28.833,17.521-42.246l-37.98-37.863l83.634-83.634
	l37.863,37.98c13.413-7.405,27.577-13.279,42.246-17.521V0h118.154v53.638c14.67,4.242,28.833,10.115,42.246,17.521l37.863-37.98
	l83.634,83.634l-37.98,37.863c7.405,13.413,13.279,27.577,17.521,42.246H512v118.154h-53.638
	c-4.242,14.67-10.115,28.833-17.521,42.246l37.98,37.863l-83.634,83.634l-37.863-37.98c-13.413,7.405-27.577,13.279-42.246,17.521
	V512H315.077z M213.802,495.121h84.396V445.35l6.358-1.618c17.497-4.454,34.276-11.413,49.87-20.681l5.649-3.358l35.132,35.239
	l59.726-59.726l-35.239-35.132l3.358-5.649c9.269-15.594,16.228-32.373,20.681-49.87l1.618-6.358h49.77v-84.396H445.35l-1.618-6.358
	c-4.454-17.497-11.413-34.276-20.681-49.87l-3.358-5.649l35.239-35.132l-59.726-59.726l-35.132,35.239l-5.649-3.358
	c-15.594-9.269-32.373-16.228-49.87-20.681l-6.357-1.616V16.879h-84.396V66.65l-6.358,1.618
	c-17.497,4.454-34.276,11.413-49.87,20.681l-5.649,3.358l-35.132-35.239l-59.726,59.726l35.239,35.132l-3.358,5.649
	c-9.269,15.594-16.228,32.373-20.681,49.87l-1.617,6.357H16.879v84.396H66.65l1.618,6.358c4.454,17.497,11.413,34.276,20.681,49.87
	l3.358,5.649l-35.239,35.132l59.726,59.726l35.132-35.239l5.649,3.358c15.594,9.269,32.373,16.228,49.87,20.681l6.358,1.618v49.77
	H213.802z"/>
<path d="M256,360.088c-57.395,0-104.088-46.693-104.088-104.088S198.605,151.912,256,151.912S360.088,198.605,360.088,256
	S313.395,360.088,256,360.088z M256,168.791c-48.086,0-87.209,39.122-87.209,87.209s39.122,87.209,87.209,87.209
	s87.209-39.122,87.209-87.209S304.086,168.791,256,168.791z"/>
<path d="M256,303.824c-26.371,0-47.824-21.453-47.824-47.824s21.453-47.824,47.824-47.824s47.824,21.453,47.824,47.824
	S282.371,303.824,256,303.824z M256,225.055c-17.064,0-30.945,13.881-30.945,30.945c0,17.064,13.881,30.945,30.945,30.945
	c17.064,0,30.945-13.881,30.945-30.945C286.945,238.936,273.064,225.055,256,225.055z"/>
<g>
	<rect x="30.945" y="247.56" style="fill:#FFFFFF;" width="22.505" height="16.879"/>
	<rect x="458.549" y="247.56" style="fill:#FFFFFF;" width="22.505" height="16.879"/>
	<rect x="244.747" y="33.758" style="fill:#FFFFFF;" width="22.505" height="16.879"/>
	<rect x="244.747" y="461.363" style="fill:#FFFFFF;" width="22.505" height="16.879"/>
	<path style="fill:#FFFFFF;" d="M112.527,256H95.648c0-88.418,71.933-160.352,160.352-160.352v16.879
		C176.889,112.527,112.527,176.889,112.527,256z"/>
	<path style="fill:#FFFFFF;" d="M256,416.352v-16.879c79.111,0,143.473-64.361,143.473-143.473h16.879
		C416.352,344.418,344.418,416.352,256,416.352z"/>
</g>
</svg>
